<?xml version="1.0" standalone="no"?>
<!DOCTYPE svg PUBLIC "-//W3C//DTD SVG 20010904//EN"
 "http://www.w3.org/TR/2001/REC-SVG-20010904/DTD/svg10.dtd">
<svg version="1.0" xmlns="http://www.w3.org/2000/svg"
 width="260.000000pt" height="260.000000pt" viewBox="0 0 260.000000 260.000000"
 preserveAspectRatio="xMidYMid meet">
<metadata>
Created by potrace 1.11, written by Peter Selinger 2001-2013
</metadata>
<g transform="translate(0.000000,260.000000) scale(0.100000,-0.100000)"
fill="#000000" stroke="none">
<path d="M1070 2570 c-293 -55 -554 -204 -739 -421 -97 -114 -127 -159 -185
-275 -38 -76 -91 -226 -101 -284 -3 -19 -8 -42 -10 -50 -13 -46 -17 -88 -20
-210 -5 -223 31 -389 125 -585 122 -254 333 -467 585 -589 120 -59 201 -87
320 -112 125 -26 323 -30 460 -8 501 80 909 447 1040 936 14 51 28 120 32 153
14 114 8 341 -12 425 -4 14 -9 38 -11 54 -19 104 -114 314 -194 430 -197 285
-498 476 -850 542 -19 3 -105 8 -190 9 -117 2 -178 -1 -250 -15z m-208 -767
c183 -153 357 -301 388 -329 40 -38 58 -48 66 -40 15 16 101 90 339 292 116
98 212 181 215 184 15 17 199 170 204 170 3 0 6 -333 6 -740 l0 -740 -185 0
c-169 0 -185 1 -186 18 0 9 0 174 0 365 l0 348 -112 -97 c-62 -54 -143 -125
-182 -159 -38 -33 -76 -66 -83 -72 -7 -7 -19 -13 -25 -13 -7 1 -100 76 -207
169 -107 92 -196 167 -198 166 -2 -2 -3 -165 -2 -364 l0 -361 -190 0 -190 0 0
740 c0 407 2 740 5 740 3 0 155 -125 337 -277z"/>
</g>
</svg>
